HIERARCHY
ROOT hip
{
  OFFSET 0 0 0
  CHANNELS 6 Xposition Yposition Zposition Zrotation Yrotation Xrotation
  JOINT abdomen
  {
    OFFSET 0 20.6881 -0.73152
    CHANNELS 3 Zrotation Xrotation Yrotation
    JOINT chest
    {
      OFFSET 0 11.7043 -0.48768
      CHANNELS 3 Zrotation Xrotation Yrotation
      JOINT neck
      {
        OFFSET 0 22.1894 -2.19456
        CHANNELS 3 Zrotation Xrotation Yrotation
        JOINT head
        {
          OFFSET -0.24384 7.07133 1.2192
          CHANNELS 3 Zrotation Xrotation Yrotation
          JOINT leftEye
          {
            OFFSET 4.14528 8.04674 8.04672
            CHANNELS 3 Zrotation Xrotation Yrotation
            End Site
            {
              OFFSET 1 0 0
            }
          }
          JOINT rightEye
          {
            OFFSET -3.6576 8.04674 8.04672
            CHANNELS 3 Zrotation Xrotation Yrotation
            End Site
            {
              OFFSET 1 0 0
            }
          }
        }
      }
      JOINT rCollar
      {
        OFFSET -2.68224 19.2634 -4.8768
        CHANNELS 3 Zrotation Xrotation Yrotation
        JOINT rShldr
        {
          OFFSET -8.77824 -1.95073 1.46304
          CHANNELS 3 Zrotation Xrotation Yrotation
          JOINT rForeArm
          {
            OFFSET -28.1742 -1.7115 0.48768
            CHANNELS 3 Zrotation Xrotation Yrotation
            JOINT rHand
            {
              OFFSET -22.5879 0.773209 7.07136
              CHANNELS 3 Zrotation Xrotation Yrotation
              JOINT rThumb1
              {
                OFFSET -1.2192 -0.487915 3.41376
                CHANNELS 3 Zrotation Xrotation Yrotation
                JOINT rThumb2
                {
                  OFFSET -3.37035 -0.52449 3.41376
                  CHANNELS 3 Zrotation Xrotation Yrotation
                  End Site
                  {
                    OFFSET -1.78271 -1.18214 1.43049
                  }
                }
              }
              JOINT rIndex1
              {
                OFFSET -7.75947 0.938293 5.60832
                CHANNELS 3 Zrotation Xrotation Yrotation
                JOINT rIndex2
                {
                  OFFSET -2.54057 -0.884171 1.56538
                  CHANNELS 3 Zrotation Xrotation Yrotation
                  End Site
                  {
                    OFFSET -1.62519 -0.234802 1.16502
                  }
                }
              }
              JOINT rMid1
              {
                OFFSET -8.24714 1.18213 3.41376
                CHANNELS 3 Zrotation Xrotation Yrotation
                JOINT rMid2
                {
                  OFFSET -3.10165 -0.590103 1.0647
                  CHANNELS 3 Zrotation Xrotation Yrotation
                  End Site
                  {
                    OFFSET -2.48547 -0.328903 0.83742
                  }
                }
              }
              JOINT rRing1
              {
                OFFSET -8.82822 0.546677 1.51678
                CHANNELS 3 Zrotation Xrotation Yrotation
                JOINT rRing2
                {
                  OFFSET -2.60934 -0.819778 -0.0198488
                  CHANNELS 3 Zrotation Xrotation Yrotation
                  End Site
                  {
                    OFFSET -2.33842 -0.294052 0.168128
                  }
                }
              }
              JOINT rPinky1
              {
                OFFSET -8.27202 -0.0477905 -0.4584
                CHANNELS 3 Zrotation Xrotation Yrotation
                JOINT rPinky2
                {
                  OFFSET -1.82734 -0.647385 -0.700984
                  CHANNELS 3 Zrotation Xrotation Yrotation
                  End Site
                  {
                    OFFSET -1.69225 -0.51767 -0.607171
                  }
                }
              }
            }
          }
        }
      }
      JOINT lCollar
      {
        OFFSET 2.68224 19.2634 -4.8768
        CHANNELS 3 Zrotation Xrotation Yrotation
        JOINT lShldr
        {
          OFFSET 8.77824 -1.95073 1.46304
          CHANNELS 3 Zrotation Xrotation Yrotation
          JOINT lForeArm
          {
            OFFSET 28.1742 -1.7115 0.48768
            CHANNELS 3 Zrotation Xrotation Yrotation
            JOINT lHand
            {
              OFFSET 22.5879 0.773209 7.07136
              CHANNELS 3 Zrotation Xrotation Yrotation
              JOINT lThumb1
              {
                OFFSET 1.2192 -0.487915 3.41376
                CHANNELS 3 Zrotation Xrotation Yrotation
                JOINT lThumb2
                {
                  OFFSET 3.37035 -0.52449 3.41376
                  CHANNELS 3 Zrotation Xrotation Yrotation
                  End Site
                  {
                    OFFSET 1.78271 -1.18214 1.43049
                  }
                }
              }
              JOINT lIndex1
              {
                OFFSET 7.75947 0.938293 5.60832
                CHANNELS 3 Zrotation Xrotation Yrotation
                JOINT lIndex2
                {
                  OFFSET 2.54057 -0.884171 1.56538
                  CHANNELS 3 Zrotation Xrotation Yrotation
                  End Site
                  {
                    OFFSET 1.62519 -0.234802 1.16502
                  }
                }
              }
              JOINT lMid1
              {
                OFFSET 8.24714 1.18213 3.41376
                CHANNELS 3 Zrotation Xrotation Yrotation
                JOINT lMid2
                {
                  OFFSET 3.10165 -0.590103 1.0647
                  CHANNELS 3 Zrotation Xrotation Yrotation
                  End Site
                  {
                    OFFSET 2.48547 -0.328903 0.83742
                  }
                }
              }
              JOINT lRing1
              {
                OFFSET 8.82822 0.546677 1.51678
                CHANNELS 3 Zrotation Xrotation Yrotation
                JOINT lRing2
                {
                  OFFSET 2.60934 -0.819778 -0.0198488
                  CHANNELS 3 Zrotation Xrotation Yrotation
                  End Site
                  {
                    OFFSET 2.33842 -0.294052 0.168128
                  }
                }
              }
              JOINT lPinky1
              {
                OFFSET 8.27202 -0.0477905 -0.4584
                CHANNELS 3 Zrotation Xrotation Yrotation
                JOINT lPinky2
                {
                  OFFSET 1.82734 -0.647385 -0.700984
                  CHANNELS 3 Zrotation Xrotation Yrotation
                  End Site
                  {
                    OFFSET 1.69225 -0.51767 -0.607171
                  }
                }
              }
            }
          }
        }
      }
    }
  }
  JOINT rButtock
  {
    OFFSET -8.77824 4.35084 1.2192
    CHANNELS 3 Zrotation Xrotation Yrotation
    JOINT rThigh
    {
      OFFSET 0 -1.70687 -2.19456
      CHANNELS 3 Zrotation Xrotation Yrotation
      JOINT rShin
      {
        OFFSET 0 -36.8199 0.73152
        CHANNELS 3 Zrotation Xrotation Yrotation
        JOINT rFoot
        {
          OFFSET 0.73152 -45.1104 -5.12064
          CHANNELS 3 Zrotation Xrotation Yrotation
          End Site
          {
            OFFSET -1.1221 -3.69964 12.103
          }
        }
      }
    }
  }
  JOINT lButtock
  {
    OFFSET 8.77824 4.35084 1.2192
    CHANNELS 3 Zrotation Xrotation Yrotation
    JOINT lThigh
    {
      OFFSET 0 -1.70687 -2.19456
      CHANNELS 3 Zrotation Xrotation Yrotation
      JOINT lShin
      {
        OFFSET 0 -36.8199 0.73152
        CHANNELS 3 Zrotation Xrotation Yrotation
        JOINT lFoot
        {
          OFFSET -0.73152 -45.1104 -5.12064
          CHANNELS 3 Zrotation Xrotation Yrotation
          End Site
          {
            OFFSET 1.1221 -3.69964 12.103
          }
        }
      }
    }
  }
}
MOTION
Frames:	9
Frame Time:	0.00833333
100.135 85.1388 128.658 0.0 0.0 0.0 0.410575 -0.00336392 0.0117802 0.113455 -0.00539467 0.0196586 -4.06331e-15 7.95139e-16 -6.21204e-18 -1.2247e-14 9.54166e-15 -5.43552e-17 -0.0 0.0 0.0 -0.0 0.0 0.0 -2.03892e-15 3.10601e-18 9.93923e-17 -4.0987e-14 -2.17421e-16 5.96354e-16 -7.3759e-13 2.22042e-13 1.27222e-14 -8.43496e-12 -2.09991e-13 -5.40694e-14 -1.99002e-11 2.96792e-14 -8.26944e-14 -3.43691e-11 5.725e-14 -1.55847e-13 -1.98956e-11 2.8625e-14 -9.22361e-14 7.73091 5.47488 0.417314 -1.99003e-11 2.98177e-14 -9.22361e-14 2.90554 0.965183 0.102902 -1.98967e-11 2.98177e-14 -9.22361e-14 10.2786 0.731801 0.0259123 -1.99029e-11 3.06128e-14 -8.90555e-14 2.22167 -0.733487 -0.20892 -2.13569e-15 2.71776e-18 -9.93923e-17 -4.45094e-14 1.67725e-16 -1.19271e-15 -7.39429e-13 -2.1588e-13 0.0 -8.43915e-12 2.42393e-13 -3.81667e-14 -1.991e-11 5.81132e-14 -8.90555e-14 -3.43738e-11 1.01778e-13 -1.59823e-13 -1.99154e-11 5.88403e-14 -9.22361e-14 -7.73091 5.47488 -0.417314 -1.99098e-11 5.81445e-14 -9.54166e-14 -2.90554 0.965183 -0.102902 -1.99182e-11 5.87409e-14 -9.14409e-14 -10.2786 0.731801 -0.0259123 -1.99053e-11 6.0033e-14 -9.22361e-14 -2.22167 -0.733487 0.20892 -2.03217e-16 0.0 -3.88251e-19 0.770904 -4.17179 -0.0656919 -0.002657 2.00547 -0.0182894 -0.46214 2.16691 0.0961426 2.03217e-16 0.0 3.88251e-19 -0.142936 -2.55997 0.026062 0.00716104 -0.914058 0.0621528 0.453463 3.47456 -0.12118
99.4404 83.6308 124.206 173.549 -3.1004 -153.372 -3.23611 -8.5855 -0.982714 1.4197 3.94427 -0.307451 -0.116927 2.75238 -0.336279 1.25792 -7.51007 -0.38019 -0.0 0.0 0.0 -0.0 0.0 0.0 -5.26466e-14 -1.03739e-13 -9.95228e-14 22.7931 1.38428 -1.37679 -4.56206 -2.14578 7.04466 0.000205222 -0.318942 -0.0448219 7.91602e-10 -1.71786e-09 4.45775e-10 1.36916e-09 -2.97217e-09 7.68871e-10 7.9161e-10 -1.71787e-09 4.45766e-10 7.73091 5.47488 0.417314 7.91602e-10 -1.71786e-09 4.45768e-10 2.90554 0.965183 0.102902 7.91606e-10 -1.71786e-09 4.45768e-10 10.2786 0.731801 0.0259123 7.91599e-10 -1.71786e-09 4.45771e-10 2.22167 -0.733487 -0.20892 -5.27792e-14 -1.03739e-13 -9.97057e-14 -20.9412 5.73161 -0.246813 3.46835 -1.45124 -5.54506 -0.00216149 1.03163 -0.144901 9.12769e-10 4.1068e-10 -1.00966e-09 1.57252e-09 7.09208e-10 -1.74979e-09 9.12764e-10 4.10682e-10 -1.00966e-09 -7.73091 5.47488 -0.417314 9.1277e-10 4.1068e-10 -1.00966e-09 -2.90554 0.965183 -0.102902 9.12761e-10 4.1068e-10 -1.00966e-09 -10.2786 0.731801 -0.0259123 9.12774e-10 4.10681e-10 -1.00966e-09 -2.22167 -0.733487 0.20892 -2.03217e-16 0.0 -3.88251e-19 -0.292136 -11.069 0.970743 -0.00243048 3.60997 0.0177419 -0.555502 -1.16089 -0.0247229 2.03217e-16 0.0 3.88251e-19 -2.17016 -9.36698 -2.6652 0.00718986 1.67514 0.0282596 0.511444 1.19181 -0.945499
99.4329 83.6251 124.215 173.519 -3.0606 -153.338 -7.4336 -17.6512 -2.11232 2.85035 8.12053 -0.65864 -0.20714 5.66072 -0.692502 2.48011 -15.4513 -0.799548 -0.0 0.0 0.0 -0.0 0.0 0.0 -1.11523e-13 -2.20452e-13 -2.12551e-13 46.9613 2.84311 -2.83495 -8.81264 -4.30376 14.5188 -0.000120356 -0.652953 -0.0917662 1.7321e-09 -3.65578e-09 9.41282e-10 2.99574e-09 -6.32507e-09 1.62348e-09 1.73211e-09 -3.65578e-09 9.41274e-10 7.73091 5.47488 0.417314 1.7321e-09 -3.65578e-09 9.41278e-10 2.90554 0.965183 0.102902 1.7321e-09 -3.65578e-09 9.41278e-10 10.2786 0.731801 0.0259123 1.73209e-09 -3.65578e-09 9.41281e-10 2.22167 -0.733487 -0.20892 -1.11697e-13 -2.20451e-13 -2.12715e-13 -43.024 11.7865 -0.515154 6.82847 -2.9385 -11.4143 0.00123519 2.1252 -0.298662 1.98598e-09 8.95587e-10 -2.12419e-09 3.42173e-09 1.54669e-09 -3.68151e-09 1.98598e-09 8.9559e-10 -2.12418e-09 -7.73091 5.47488 -0.417314 1.98598e-09 8.95588e-10 -2.12419e-09 -2.90554 0.965183 -0.102902 1.98597e-09 8.95588e-10 -2.12419e-09 -10.2786 0.731801 -0.0259123 1.98599e-09 8.95589e-10 -2.1242e-09 -2.22167 -0.733487 0.20892 -2.03217e-16 0.0 -3.88251e-19 -1.13307 -18.3562 2.14769 -0.0044366 5.31159 0.0561414 -0.670789 -4.68557 -0.163311 2.03217e-16 0.0 3.88251e-19 -5.03863 -16.5078 -5.67097 0.0106088 4.41241 -0.00762889 0.501207 -1.22547 -1.81839
99.4331 83.6234 124.233 173.52 -3.0234 -153.253 -11.5061 -25.7172 -3.26208 4.16995 11.8421 -0.980352 -0.252996 8.256 -1.01823 3.45378 -22.5261 -1.2242 -0.0 0.0 0.0 -0.0 0.0 0.0 -1.53862e-13 -3.11223e-13 -2.98767e-13 68.579 4.14324 -4.14 -12.1357 -6.04892 21.2431 -0.000881542 -0.956824 -0.134482 2.41461e-09 -5.15365e-09 1.33749e-09 4.17621e-09 -8.91663e-09 2.30692e-09 2.41462e-09 -5.15365e-09 1.33748e-09 7.73091 5.47488 0.417314 2.41461e-09 -5.15365e-09 1.33749e-09 2.90554 0.965183 0.102902 2.41461e-09 -5.15365e-09 1.33749e-09 10.2786 0.731801 0.0259123 2.4146e-09 -5.15365e-09 1.33749e-09 2.22167 -0.733487 -0.20892 -1.54066e-13 -3.11222e-13 -2.98918e-13 -62.6696 17.1935 -0.771204 9.57361 -4.1909 -16.6757 0.0091887 3.0948 -0.435266 2.77813e-09 1.23192e-09 -3.0288e-09 4.78631e-09 2.12742e-09 -5.24906e-09 2.77812e-09 1.23193e-09 -3.02879e-09 -7.73091 5.47488 -0.417314 2.77813e-09 1.23192e-09 -3.0288e-09 -2.90554 0.965183 -0.102902 2.77812e-09 1.23192e-09 -3.0288e-09 -10.2786 0.731801 -0.0259123 2.77813e-09 1.23192e-09 -3.02881e-09 -2.22167 -0.733487 0.20892 -2.03217e-16 0.0 -3.88251e-19 -1.60238 -24.832 3.29392 -0.00806944 6.81897 0.0903154 -0.78455 -7.81641 -0.268799 2.03217e-16 0.0 3.88251e-19 -8.27791 -22.7777 -8.61757 0.016462 6.85355 -0.0398317 0.430249 -3.36976 -2.59846
99.4301 83.6209 124.237 173.52 -3.0889 -153.228 -14.5474 -31.3148 -4.18704 5.11357 14.4283 -1.21046 -0.256352 10.0697 -1.2589 4.03227 -27.4386 -1.58535 -0.0 0.0 0.0 -0.0 0.0 0.0 -1.54855e-13 -3.3714e-13 -3.17956e-13 83.68 5.05571 -5.05315 -14.2159 -7.12996 25.9895 -0.00172353 -1.18535 -0.166614 2.45215e-09 -5.55139e-09 1.48545e-09 4.2414e-09 -9.60485e-09 2.56245e-09 2.45217e-09 -5.55139e-09 1.48544e-09 7.73091 5.47488 0.417314 2.45215e-09 -5.55139e-09 1.48545e-09 2.90554 0.965183 0.102902 2.45216e-09 -5.55139e-09 1.48545e-09 10.2786 0.731801 0.0259123 2.45215e-09 -5.55139e-09 1.48545e-09 2.22167 -0.733487 -0.20892 -1.5506e-13 -3.37139e-13 -3.18105e-13 -76.3318 20.982 -0.967685 11.3607 -5.01028 -20.3793 0.0173201 3.75455 -0.528431 2.86762e-09 1.19683e-09 -3.4086e-09 4.93931e-09 2.0663e-09 -5.90625e-09 2.86761e-09 1.19683e-09 -3.40858e-09 -7.73091 5.47488 -0.417314 2.86762e-09 1.19683e-09 -3.4086e-09 -2.90554 0.965183 -0.102902 2.86761e-09 1.19683e-09 -3.4086e-09 -10.2786 0.731801 -0.0259123 2.86762e-09 1.19683e-09 -3.40861e-09 -2.22167 -0.733487 0.20892 -2.03217e-16 0.0 -3.88251e-19 -1.75382 -29.3102 4.13212 -0.0113833 7.84076 0.11347 -0.85859 -9.96277 -0.287899 2.03217e-16 0.0 3.88251e-19 -10.9498 -27.0597 -10.8944 0.0218804 8.55436 -0.0623997 0.347767 -4.83581 -3.13942
99.4416 83.6225 124.22 173.562 -3.1553 -153.314 -15.747 -33.4853 -4.56607 5.4868 15.4244 -1.2986 -0.223696 10.7969 -1.37996 4.15398 -29.3149 -1.81378 -0.0 0.0 0.0 -0.0 0.0 0.0 -8.6298e-14 -2.62123e-13 -2.29702e-13 89.5925 5.43006 -5.41286 -15.0035 -7.53539 27.9112 -0.00223712 -1.31048 -0.18421 1.37956e-09 -4.15729e-09 1.21131e-09 2.38693e-09 -7.19299e-09 2.09026e-09 1.37957e-09 -4.15729e-09 1.21131e-09 7.73091 5.47488 0.417314 1.37956e-09 -4.15729e-09 1.21132e-09 2.90554 0.965183 0.102902 1.37956e-09 -4.15729e-09 1.21132e-09 10.2786 0.731801 0.0259123 1.37955e-09 -4.15729e-09 1.21132e-09 2.22167 -0.733487 -0.20892 -8.64574e-14 -2.62123e-13 -2.29869e-13 -81.6751 22.5032 -1.05675 12.055 -5.33122 -21.8819 0.0207129 3.9776 -0.559983 1.77811e-09 5.66053e-10 -2.9697e-09 3.05913e-09 9.75913e-10 -5.1429e-09 1.7781e-09 5.66056e-10 -2.96968e-09 -7.73091 5.47488 -0.417314 1.77811e-09 5.66054e-10 -2.9697e-09 -2.90554 0.965183 -0.102902 1.7781e-09 5.66052e-10 -2.9697e-09 -10.2786 0.731801 -0.0259123 1.77811e-09 5.66052e-10 -2.96971e-09 -2.22167 -0.733487 0.20892 -2.03217e-16 0.0 -3.88251e-19 -1.79102 -31.0112 4.33324 -0.0121499 8.17302 0.120464 -0.852764 -10.7108 -0.142677 2.03217e-16 0.0 3.88251e-19 -12.0681 -28.7035 -11.8549 0.0237698 9.21865 -0.071122 0.312296 -5.35218 -3.33393
99.4608 83.6252 124.208 173.637 -3.1834 -153.382 -15.5207 -33.2156 -4.48054 5.44167 15.2849 -1.28156 -0.173587 10.7479 -1.41338 3.98784 -29.0242 -1.92424 -0.0 0.0 0.0 -0.0 0.0 0.0 3.1382e-14 -1.15494e-13 -6.53505e-14 88.927 5.422 -5.3753 -14.9663 -7.53198 27.8005 -0.00239624 -1.36166 -0.191407 -4.76121e-10 -1.49528e-09 6.39237e-10 -8.2167e-10 -2.58752e-09 1.10439e-09 -4.76114e-10 -1.49528e-09 6.39235e-10 7.73091 5.47488 0.417314 -4.76121e-10 -1.49528e-09 6.39243e-10 2.90554 0.965183 0.102902 -4.76119e-10 -1.49528e-09 6.39243e-10 10.2786 0.731801 0.0259123 -4.76127e-10 -1.49528e-09 6.39247e-10 2.22167 -0.733487 -0.20892 3.13024e-14 -1.15494e-13 -6.55492e-14 -81.0906 22.4051 -1.06218 12.025 -5.32738 -21.8057 0.019665 3.88888 -0.547445 -1.44248e-10 -4.86608e-10 -1.95001e-09 -2.57277e-10 -8.43444e-10 -3.37183e-09 -1.44252e-10 -4.86608e-10 -1.95e-09 -7.73091 5.47488 -0.417314 -1.44247e-10 -4.8661e-10 -1.95001e-09 -2.90554 0.965183 -0.102902 -1.44254e-10 -4.86611e-10 -1.95001e-09 -10.2786 0.731801 -0.0259123 -1.44244e-10 -4.86611e-10 -1.95002e-09 -2.22167 -0.733487 0.20892 -2.03217e-16 0.0 -3.88251e-19 -1.8214 -30.734 4.03301 -0.0107024 8.01323 0.115867 -0.791431 -10.4609 0.117971 2.03217e-16 0.0 3.88251e-19 -11.8786 -28.5064 -11.759 0.0224538 9.14259 -0.0698294 0.324215 -5.1913 -3.27913
99.4627 83.6217 124.214 173.65 -3.23 -153.33 -14.7289 -31.9638 -4.21698 5.22684 14.6942 -1.22375 -0.129485 10.3774 -1.40241 3.75068 -27.886 -1.95612 -0.0 0.0 0.0 -0.0 0.0 0.0 1.50045e-13 4.35591e-14 1.07673e-13 85.6339 5.26385 -5.17627 -14.5988 -7.36445 26.87 -0.00238158 -1.37991 -0.193973 -2.31353e-09 1.27122e-09 6.72441e-11 -3.99871e-09 2.19877e-09 1.18878e-10 -2.31353e-09 1.27123e-09 6.7244e-11 7.73091 5.47488 0.417314 -2.31353e-09 1.27123e-09 6.72528e-11 2.90554 0.965183 0.102902 -2.31353e-09 1.27123e-09 6.7252e-11 10.2786 0.731801 0.0259123 -2.31354e-09 1.27123e-09 6.72579e-11 2.22167 -0.733487 -0.20892 1.50047e-13 4.35588e-14 1.07442e-13 -78.129 21.6633 -1.03749 11.7035 -5.19231 -21.0916 0.0170125 3.68019 -0.517953 -2.08729e-09 -1.58693e-09 -8.32354e-10 -3.609e-09 -2.74532e-09 -1.43129e-09 -2.0873e-09 -1.58693e-09 -8.32346e-10 -7.73091 5.47488 -0.417314 -2.08729e-09 -1.58693e-09 -8.32357e-10 -2.90554 0.965183 -0.102902 -2.0873e-09 -1.58694e-09 -8.32355e-10 -10.2786 0.731801 -0.0259123 -2.08729e-09 -1.58693e-09 -8.32362e-10 -2.22167 -0.733487 0.20892 -2.03217e-16 0.0 -3.88251e-19 -1.81586 -29.6685 3.59618 -0.00868137 7.67212 0.107361 -0.728403 -9.84385 0.358897 2.03217e-16 0.0 3.88251e-19 -11.1641 -27.5672 -11.2388 0.0198482 8.77046 -0.0644754 0.352929 -4.76487 -3.13236
99.4817 83.6161 124.22 173.64 -3.2547 -153.275 -14.2314 -31.1881 -4.06246 5.09101 14.3364 -1.18961 -0.112911 10.14 -1.39073 3.64431 -27.2195 -1.95602 -0.0 0.0 0.0 -0.0 0.0 0.0 2.21551e-13 1.55848e-13 2.21943e-13 83.6648 5.18783 -5.05176 -14.3861 -7.27026 26.3342 -0.00242606 -1.40628 -0.197679 -3.33132e-09 2.97884e-09 -2.06637e-10 -5.7585e-09 5.15308e-09 -3.52263e-10 -3.33132e-09 2.97884e-09 -2.06637e-10 7.73091 5.47488 0.417314 -3.33132e-09 2.97884e-09 -2.06628e-10 2.90554 0.965183 0.102902 -3.33132e-09 2.97884e-09 -2.06629e-10 10.2786 0.731801 0.0259123 -3.33133e-09 2.97884e-09 -2.06622e-10 2.22167 -0.733487 -0.20892 2.21605e-13 1.55848e-13 2.21695e-13 -76.3394 21.2528 -1.03701 11.5179 -5.1163 -20.6807 0.0154231 3.54333 -0.498625 -3.23888e-09 -2.36069e-09 -9.95514e-11 -5.59511e-09 -4.08325e-09 -1.59495e-10 -3.23889e-09 -2.36069e-09 -9.9545e-11 -7.73091 5.47488 -0.417314 -3.23888e-09 -2.36069e-09 -9.95545e-11 -2.90554 0.965183 -0.102902 -3.23889e-09 -2.36069e-09 -9.95522e-11 -10.2786 0.731801 -0.0259123 -3.23888e-09 -2.36069e-09 -9.95577e-11 -2.22167 -0.733487 0.20892 -2.03217e-16 0.0 -3.88251e-19 -1.76986 -29.0081 3.37518 -0.0076074 7.46042 0.102606 -0.704397 -9.49079 0.447308 2.03217e-16 0.0 3.88251e-19 -10.7174 -26.9824 -10.9318 0.0178913 8.54659 -0.0610181 0.369155 -4.48471 -3.05074
